<?xml version="1.0" standalone="no"?>
<!DOCTYPE svg PUBLIC "-//W3C//DTD SVG 1.1//EN" "http://www.w3.org/Graphics/SVG/1.1/DTD/svg11.dtd" >
<!--
2013-9-30: Created.
-->
<svg>
<metadata>
Created by iconfont
</metadata>
<defs>

<font id="iconfont" horiz-adv-x="1024" >
  <font-face
    font-family="iconfont"
    font-weight="500"
    font-stretch="normal"
    units-per-em="1024"
    ascent="896"
    descent="-128"
  />
    <missing-glyph />
    
    <glyph glyph-name="yonghu" unicode="&#59047;" d="M618.328166-62.463378l-22.591531 0-35.615149-0.274246L78.732667-62.737624l0 23.180955c0 0-10.450003 129.485073 180.24413 162.632007 0 0 145.163147 19.594267 155.327648 59.517535 0 0 5.539156 4.441149 1.451048 50.80306-8.713452 98.715279-73.308633 145.166217-99.438757 182.90882-26.1291 37.745672-28.305673 81.293491-28.305673 81.293491 0 10.883885 4.557806 14.872732 12.137435 21.862937 9.368368 8.648984 6.556323 17.835204 4.767584 27.566846-6.807033 36.94647-7.407714 96.300276-0.938372 133.479037 1.452071 44.275389 42.097794 79.83835 42.097794 79.83835 7.625678 6.470365 15.270798 13.588483 20.62269 22.12695 1.496074 2.378164 2.870374 4.927219 3.685949 7.631818 3.062755 10.19213-7.30436 17.675568-5.225001 28.516474 1.876744 9.774621 18.630313 10.255575 28.762067 10.787694 22.817682 1.201361 45.750997 2.099824 68.532863 0.354064 170.505325-13.07069 226.564086-75.838246 226.564086-75.838246 13.274328-15.893992 22.018479-35.332716 27.279297-55.255465 1.575892-5.955642 2.926656-12.037151 3.657296-18.161638 5.316076-30.537504 5.297656-62.381769 3.645017-93.240591-0.788969-14.712073-2.49789-29.195949-4.65809-43.754526-1.1328-7.618515-0.552585-14.709003 4.541433-20.797675 4.254907-5.094018 9.122775-8.654101 11.210319-15.3455 0.978281-3.12927 1.233084-6.509251 1.233084-9.770528 0 0-2.179642-43.547819-28.309766-81.293491-26.1291-37.742603-90.726328-84.193541-99.43364-182.90882-4.092201-46.361911 1.451048-50.804083 1.451048-50.804083 10.160407-39.921221 155.326625-59.517535 155.326625-59.517535 192.82568-35.761482 180.240037-162.632007 180.240037-162.632007l0-23.178909L818.251497-62.736601l20.002566 0.274246-17.081027 0-35.406394 0L618.328166-62.462355 618.328166-62.463378z"  horiz-adv-x="1024" />

    
    <glyph glyph-name="xiala1" unicode="&#58973;" d="M787.2 515.2c-9.6 9.6-22.4 12.8-35.2 12.8l-480-3.2c-12.8 0-25.6-3.2-35.2-12.8-19.2-19.2-19.2-48 0-67.2l240-240c0 0 0 0 0 0 0 0 0 0 0 0 3.2-3.2 9.6-6.4 12.8-9.6 0 0 3.2-3.2 3.2-3.2 16-6.4 38.4-3.2 51.2 9.6l240 243.2C806.4 467.2 803.2 496 787.2 515.2z"  horiz-adv-x="1024" />

    
    <glyph glyph-name="mendian" unicode="&#58909;" d="M1038.020219 717.071649 106.89802 717.071649 10.24 464.1508C10.24 388.43501 73.069837 325.61304 150.394994 325.61304 227.71386 325.61304 292.153063 386.825642 292.153063 464.1508 292.153063 388.43501 354.9829 325.61304 432.308058 325.61304 509.633217 325.61304 574.066127 386.825642 574.066127 464.1508 574.066127 388.43501 636.895965 325.61304 714.221122 325.61304 791.547853 325.61304 854.369823 386.825642 854.369823 464.1508 854.369823 388.43501 917.199661 325.61304 996.135758 325.61304 1073.460916 325.61304 1137.90012 386.825642 1137.90012 464.1508L1038.020219 717.071649 1038.020219 717.071649ZM960.69506 282.116065 960.69506-40.073665 187.445059-40.073665 187.445059 282.116065 106.89802 282.116065 106.89802-56.186218C106.89802-85.180006 139.118409-120.619131 168.112197-120.619131L978.418557-120.619131C1007.410772-120.619131 1039.631159-85.180006 1039.631159-56.186218L1039.631159 282.116065 960.69506 282.116065 960.69506 282.116065ZM1038.020219 718.681016 1038.020219 718.681016 1041.240527 715.865016 1038.020219 718.681016 1038.020219 718.681016ZM171.330932 781.504561 976.801323 781.504561C1004.192035 781.504561 1025.134266 802.446791 1025.134266 829.83593 1025.134266 857.220351 1004.192035 878.162581 976.801323 878.162581L171.330932 878.162581C143.948085 878.162581 123.005855 857.220351 123.005855 829.83593 123.005855 802.446791 143.948085 781.504561 171.330932 781.504561L171.330932 781.504561Z"  horiz-adv-x="1147" />

    
    <glyph glyph-name="shuju" unicode="&#58961;" d="M579.82906 445.665585 1023.556141 445.665585C1023.556141 445.665585 1024.957734 863.498139 579.82906 895.195248M895.638662 326.947486C895.638662 76.403326 695.169719-126.735209 447.824333-126.735209 200.502701-126.735209 0 76.403326 0 326.947486 0 577.522059 200.4977 780.650455 447.824333 780.650455L447.824333 326.947486 895.638662 326.947486 895.638662 326.947486Z"  horiz-adv-x="1024" />

    
    <glyph glyph-name="shouye" unicode="&#59045;" d="M996.7104 454.02112 609.4336 857.1904C585.36448 882.22208 553.20064 896 518.72256 896S452.08064 882.22208 428.01664 857.1904L40.73984 454.02112c-39.9616-41.61536-34.816-77.58336-28.2112-92.61056 4.70528-10.65984 20.60288-39.9616 66.39616-39.9616l56.76544 0 0-310.15936c0-70.41536 50.56-136.71936 122.41408-136.71936l65.14688 0L422.9632-125.42976l0 72.87808 0 255.36c0 35.19488-5.32992 54.79936 30.61248 54.79936l65.14688 0 65.14688 0c35.93728 0 30.61248-19.60448 30.61248-54.79936l0-255.36 0-72.87808 99.71712 0 65.152 0c71.84896 0 122.40384 66.304 122.40384 136.71936l0 310.15936 56.77056 0c45.77792 0 61.68576 29.30176 66.39616 39.9616C1031.53664 376.43264 1036.672 412.40576 996.7104 454.02112z"  horiz-adv-x="1030" />

    
    <glyph glyph-name="chanpin1" unicode="&#58943;" d="M284.40576 793.9072c99.4304 0 179.93728-79.70816 179.93728-179.15904l0-179.93728-179.93728 0c-99.4304 0-179.15904 80.4864-179.15904 179.93728S184.95488 793.9072 284.40576 793.9072L284.40576 793.9072zM109.9776 157.77792c0 99.4304 80.50688 179.97824 179.95776 179.97824l179.15904 0 0-179.97824c0-98.63168-80.50688-179.13856-179.15904-179.13856C190.48448-21.36064 109.9776 59.14624 109.9776 157.77792L109.9776 157.77792zM744.50944 793.9072c-99.4304 0-179.13856-79.70816-179.13856-179.15904l0-179.93728 179.13856 0c99.4304 0 179.93728 80.4864 179.93728 179.93728S843.93984 793.9072 744.50944 793.9072L744.50944 793.9072zM918.9376 157.77792c0 99.4304-79.72864 179.97824-179.15904 179.97824l-179.95776 0 0-179.97824c0-98.63168 80.52736-179.13856 179.95776-179.13856S918.9376 59.14624 918.9376 157.77792L918.9376 157.77792z"  horiz-adv-x="1024" />

    
    <glyph glyph-name="jiaoyikuai" unicode="&#58900;" d="M1023.872 379.118933 735.0784 506.8288 909.653333 550.237867C844.416 705.9456 691.0976 815.863467 511.965867 815.863467 471.586133 815.863467 428.629333 809.898667 389.853867 798.848 322.884267 779.784533 260.352 740.096 209.885867 692.5824 184.1408 668.381867 162.312533 640.708267 144.5888 610.141867 124.945067 576.3072 105.489067 537.7792 93.994667 500.343467 88.797867 483.328 73.002667 472.482133 56.055467 472.797867 52.4544 472.866133 48.861867 473.4464 45.397333 474.4704 3.080533 487.441067 21.444267 537.454933 31.906133 566.3488 49.885867 615.9872 78.711467 661.256533 111.4624 702.4128 205.2608 820.3008 349.917867 896 511.965867 896 794.274133 896 1024 666.325333 1024 384 1024 382.395733 1023.872 380.791467 1023.872 379.118933ZM433.834667 594.414933C476.782933 505.480533 503.944533 446.856533 515.3024 418.6112L517.230933 418.6112C518.7072 422.715733 597.5552 594.414933 597.5552 594.414933L687.4368 594.414933 575.274667 402.432 654.762667 402.432 654.762667 344.644267 556.526933 344.644267 556.526933 300.8512 654.762667 300.8512 654.762667 242.551467 556.526933 242.551467 556.526933 162.4832 467.797333 162.4832 467.797333 242.551467 366.225067 242.551467 366.225067 300.8512 467.797333 300.8512 467.797333 344.644267 366.225067 344.644267 366.225067 402.432 448.017067 402.432 338.935467 594.414933 433.834667 594.414933ZM114.414933 216.413867C180.027733 61.4144 333.354667-47.803733 511.965867-47.803733 704.264533-47.803733 867.208533 78.685867 922.88 252.757333 925.636267 261.486933 926.856533 272.085333 930.005333 281.454933 930.4576 282.871467 930.9696 284.288 931.541333 285.636267 931.6096 285.824 931.669333 286.08 931.805867 286.276267 938.410667 301.4912 954.146133 311.441067 971.6736 309.521067 993.0496 307.140267 1008.4608 287.812267 1006.088533 266.496 1000.567467 217.378133 982.263467 173.141333 964.164267 139.818667 940.919467 96.989867 910.037333 58.786133 875.8784 24.2432 783.035733-69.700267 654.1824-128 511.965867-128 229.6576-128 0 101.674667 0 384 0 391.901867 0.256 399.7952 0.580267 407.6288L287.505067 216.413867 114.414933 216.413867Z"  horiz-adv-x="1024" />

    
    <glyph glyph-name="jingyingyehu" unicode="&#58962;" d="M661.508 561.346c21.148-17.437 48.443-27.95 78.249-27.95 67.171 0 121.61 53.358 121.61 119.15 0 65.833-54.439 119.17-121.61 119.17-17.514 0-34.157-3.633-49.2-10.161 12.056-23.904 18.845-50.827 18.845-79.311 0-46.608-18.158-89.052-47.894-120.898z m-377.22-58.46c-69.34-3.562-151.884-29.414-151.884-29.414l30.354-208.769 60.754-59.649V26.11s39.908-29.824 75.919-29.824c35.565 0 75.919 29.824 75.919 29.824V195.113l-60.752 39.766-30.31 268.008z m30.309 30.51c29.81 0 57.107 10.516 78.257 27.956-29.731 31.846-47.881 74.287-47.881 120.89 0 28.481 6.786 55.402 18.84 79.306-15.048 6.532-31.698 10.166-49.216 10.166-67.15 0-121.59-53.336-121.59-119.17 0-65.79 54.44-119.147 121.59-119.147z m425.159-59.924s-121.738 29.824-212.569 29.824c-91.383 0-212.59-29.824-212.59-29.824l30.376-238.593 91.107-59.649v-208.769s45.267-29.825 91.107-29.825c45.268 0 91.086 29.825 91.086 29.825v208.77l91.128 59.648 30.355 238.593z m29.947 26.212L739.756 234.88l-91.107-59.649V26.11s39.91-29.824 75.92-29.824c35.587 0 75.92 29.824 75.92 29.824V205.055l67.233 53.887 23.874 210.124s-60.983 21.82-121.893 30.618zM527.188 533.12c83.842 0 151.838 66.766 151.838 149.122 0 82.354-67.996 149.12-151.838 149.12-83.863 0-151.838-66.766-151.838-149.12 0-82.357 67.975-149.122 151.838-149.122z"  horiz-adv-x="1024" />

    
    <glyph glyph-name="pici" unicode="&#58895;" d="M924.246 347.952l0.01-0.019-395.771-159.088a2.223 2.223 0 0 1-0.639-0.343l0.277 0.199-0.01 0.017c-4.631-1.924-10.013-3.041-15.652-3.041h-0.014a41.675 41.675 0 0 0-15.93 3.142l0.274-0.119-0.186 0.074c-0.061 0.027-0.122 0.048-0.18 0.069L100.655 347.95c-14.851 5.981-25.317 20.177-25.317 36.771 0 21.983 18.345 39.807 40.979 39.807a41.86 41.86 0 0 0 15.661-3.042l0.01 0.017 0.183-0.074c0.055-0.02 0.117-0.048 0.174-0.069l380.107-152.795L892.559 421.36c0.062 0.02 0.117 0.048 0.18 0.069l0.183 0.074 0.004-0.017c4.635 1.925 10.017 3.042 15.662 3.042 22.634 0 40.979-17.827 40.979-39.807 0.001-16.593-10.459-30.791-25.317-36.771z m0 172.509l0.01-0.018-395.771-159.088c-0.061-0.028-0.122-0.049-0.18-0.074l-0.183-0.074-0.01 0.017c-4.629-1.923-10.005-3.039-15.644-3.039H512.439a41.7 41.7 0 0 0-15.929 3.14l0.274-0.119-0.186 0.074c-0.061 0.028-0.122 0.049-0.18 0.074L100.647 520.46c-14.851 5.979-25.317 20.173-25.317 36.765s10.464 30.79 25.317 36.765l-0.003 0.017 395.772 159.094a4.626 4.626 0 0 1 1.248 0.689l-0.884-0.545 0.003-0.017c4.636 1.922 10.018 3.037 15.663 3.037s11.027-1.116 15.941-3.139l-0.27 0.119 0.183-0.074c0.055-0.027 0.117-0.048 0.18-0.069l395.763-159.11c14.86-5.975 25.317-20.174 25.317-36.765 0.001-16.593-10.459-30.786-25.316-36.765l-0.004-0.002zM116.319 252.027a41.942 41.942 0 0 0 15.661-3.042l0.01 0.018 0.183-0.074c0.055-0.028 0.117-0.048 0.174-0.074l380.107-152.787 380.471 152.918c4.639 1.924 10.026 3.041 15.675 3.042 22.623 0 40.966-17.825 40.966-39.813 0-16.587-10.46-30.789-25.317-36.765l0.01-0.018-395.772-159.088c-0.061-0.027-0.122-0.048-0.178-0.074l-0.183-0.069-0.01 0.013c-4.637-1.924-10.021-3.042-15.668-3.042a41.778 41.778 0 0 0-15.947 3.15l0.288-0.119-0.186 0.069c-0.061 0.028-0.122 0.049-0.18 0.074L100.651 175.452c-14.851 5.975-25.317 20.177-25.317 36.765 0 21.986 18.346 39.813 40.98 39.813h0.002z"  horiz-adv-x="1024" />

    
    <glyph glyph-name="erweima" unicode="&#58880;" d="M62.996776 411.938306l423.162696 0L486.159472 835.099978 62.996776 835.099978 62.996776 411.938306zM168.788218 729.30956l211.580836 0 0-211.580836L168.788218 517.728724 168.788218 729.30956zM539.055193 835.099978l0-423.162696 423.162696 0L962.217888 835.099978 539.055193 835.099978zM856.426447 517.728724L644.845611 517.728724 644.845611 729.30956l211.580836 0L856.426447 517.728724zM221.682915 570.623421l105.790418 0L327.473333 676.414863 221.682915 676.414863 221.682915 570.623421zM62.996776-64.12011099999995l423.162696 0L486.159472 359.04258500000003 62.996776 359.04258500000003 62.996776-64.12011099999995zM168.788218 253.252167l211.580836 0 0-211.580836L168.788218 41.67133100000001 168.788218 253.252167zM803.531749 676.414863L697.740308 676.414863l0-105.790418 105.790418 0L803.530726 676.414863zM539.055193-64.12011099999995l105.790418 0L644.845611 41.67030799999998 539.055193 41.67030799999998 539.055193-64.12011099999995zM644.845611 253.252167l0-211.580836 105.790418 0L750.636029 253.252167 644.845611 253.252167zM856.426447 41.67030799999998L750.636029 41.67030799999998 750.636029-64.12011099999995l211.580836 0L962.216865 147.46174900000005 856.426447 147.46174900000005 856.426447 41.67030799999998zM856.426447 253.252167l105.790418 0L962.216865 359.04258500000003 856.426447 359.04258500000003 856.426447 253.252167zM539.055193 359.04258500000003l0-105.790418 105.790418 0L644.845611 359.04258500000003 539.055193 359.04258500000003zM221.682915 94.56602799999996l105.790418 0L327.473333 200.356446 221.682915 200.356446 221.682915 94.56602799999996z"  horiz-adv-x="1024" />

    
    <glyph glyph-name="jiaoyi" unicode="&#59011;" d="M548.571429 384h164.571428a18.285714 18.285714 0 0 1 18.285714 18.285714v36.571429a18.285714 18.285714 0 0 1-18.285714 18.285714h-123.794286l124.489143 124.489143a18.285714 18.285714 0 0 1 0 25.856l-25.856 25.856a18.285714 18.285714 0 0 1-25.856 0l-150.052571-150.016-150.930286 150.930286a18.285714 18.285714 0 0 1-25.856 0l-25.856-25.856a18.285714 18.285714 0 0 1 0-25.856L434.834286 457.142857H310.857143a18.285714 18.285714 0 0 1-18.285714-18.285714v-36.571429a18.285714 18.285714 0 0 1 18.285714-18.285714H475.428571v-73.142857H310.857143a18.285714 18.285714 0 0 1-18.285714-18.285714v-36.571429a18.285714 18.285714 0 0 1 18.285714-18.285714H475.428571v-128a18.285714 18.285714 0 0 1 18.285715-18.285715h36.571428a18.285714 18.285714 0 0 1 18.285715 18.285715V237.714286h164.571428a18.285714 18.285714 0 0 1 18.285714 18.285714v36.571429a18.285714 18.285714 0 0 1-18.285714 18.285714H548.571429v73.142857z m-36.571429-512C229.229714-128 0 101.229714 0 384S229.229714 896 512 896s512-229.229714 512-512-229.229714-512-512-512z"  horiz-adv-x="1024" />

    
    <glyph glyph-name="shouqi" unicode="&#58939;" d="M868.2 647.2H156c-15.4 0-28 12.6-28 28s12.6 28 28 28h712.1c15.4 0 28-12.6 28-28 0.1-15.4-12.5-28-27.9-28zM868.2 72.2H156c-15.4 0-28 12.6-28 28s12.6 28 28 28h712.1c15.4 0 28-12.6 28-28 0.1-15.4-12.5-28-27.9-28zM868.2 455.2H380c-15.4 0-28 12.6-28 28s12.6 28 28 28h488.2c15.4 0 28-12.6 28-28s-12.6-28-28-28zM868.2 262.8H380c-15.4 0-28 12.6-28 28s12.6 28 28 28h488.2c15.4 0 28-12.6 28-28s-12.6-28-28-28zM130.1 379.8L265 255.3v249z"  horiz-adv-x="1024" />

    
    <glyph glyph-name="jinrurenwu" unicode="&#58885;" d="M630.6 709.7L629.7 830H133l1.3-182.3v-52.3h62.2v51.5h638.8v-646H196.4v44.5h-62.2V-62h763.1V709.7H630.6z m-63 57.4l1.3-56.6H196.4l-1.3 56.6h372.5zM347.5 536.9l-47.1-45.7 111.4-108H126.6v-72.3h285.2L300.4 202.8l47.1-45.6L543.2 347zM793.9 170.5H515.6v-39.3h278.3v39.3zM608.4 84.6h185.5v-39.3H608.4z"  horiz-adv-x="1024" />

    
    <glyph glyph-name="jichuxinxi" unicode="&#58897;" d="M475.819 418.475c21.845-15.36 51.2-15.36 73.045 0l442.027 257.024c8.192 5.802 10.24 17.066 4.778 25.258-1.706 2.731-4.096 4.779-7.168 6.144L540.672 878.933c-18.09 8.875-38.912 8.875-57.003 0L36.181 706.901c-9.216-4.437-12.97-15.36-8.533-24.234 1.365-2.731 3.413-5.12 6.144-7.168l442.027-257.024zM988.5 232.107L867.67 292.18 589.141 96.94c-22.869-15.019-49.493-22.87-76.8-22.87-27.648 0-53.93 7.851-76.8 22.87L157.013 292.18 35.84 232.107c-9.216-4.438-12.97-15.36-8.533-24.235 1.365-2.73 3.413-5.12 6.144-7.168l442.026-312.661c21.846-15.36 51.2-15.36 73.046 0l442.026 312.661c8.192 5.803 10.24 17.067 4.779 25.259-1.365 2.73-3.755 4.778-6.827 6.144z m0 245.418L867.67 537.6 589.141 375.808c-22.869-15.019-49.493-22.87-76.8-22.87-27.648 0-53.93 7.851-76.8 22.87L157.013 537.6 35.84 477.525c-9.216-4.437-12.97-15.36-8.533-24.234 1.365-2.731 3.413-5.12 6.144-7.168l421.888-292.864c34.474-22.87 80.554-22.87 117.077 2.389l418.475 290.475c8.192 5.802 10.24 17.066 4.778 25.258-1.706 2.731-4.096 4.779-7.168 6.144z"  horiz-adv-x="1024" />

    
    <glyph glyph-name="riqi" unicode="&#59057;" d="M915.2-70.4h-768c-38.4 0-64 25.6-64 64v640c0 38.4 25.6 64 64 64h128v96c0 19.2 12.8 32 32 32s32-12.8 32-32v-96h384v96c0 19.2 12.8 32 32 32s32-12.8 32-32v-96h128c38.4 0 64-25.6 64-64v-640c0-38.4-32-64-64-64z m0 672c0 19.2-12.8 32-32 32h-96v-96c0-19.2-12.8-32-32-32s-32 12.8-32 32v96h-384v-96c0-19.2-12.8-32-32-32s-32 12.8-32 32v96h-96c-19.2 0-32-12.8-32-32v-160h768v160z m0-224h-768v-352c0-19.2 12.8-32 32-32h704c19.2 0 32 12.8 32 32v352z"  horiz-adv-x="1024" />

    
    <glyph glyph-name="jiaoyi1" unicode="&#59127;" d="M883.97822057 639.4980129200001c0.46813456 0.35882394 6.52180356 5.16967887 5.93960574 12.99132812-0.48358062 6.50516934-5.19225386 10.19796684-5.93960574 10.76353041L551.40901273 853.29173983c-6.0334703 3.59893294-15.44606419 8.14482846-27.44409157 9.50051764-21.17536581 2.39295179-38.0460324-6.54913122-43.82048408-9.50051764 0 0-255.9971269-152.14848478-332.56920782-190.03886838A13.27529808 13.27529808 0 0 1 140.18963427 651.30118225a13.27886255 13.27886255 0 0 1 7.38559499-11.80316933l332.56920782-190.03886837c4.70867325-3.14980894 18.0053582-11.1473057 36.6915314-10.83838444 17.42672487 0.28753444 29.79189332 7.63748466 34.57304425 10.83838444l332.56920784 190.03886837zM76.31065364 520.72372017A25998.79502672 25998.79502672 0 0 0 76.02905998 196.23636837000004a270.29661786 270.29661786 0 0 1 0-26.13949322c0.65823995-13.67214311 0.98854811-20.50762058 3.56447638-26.13949321 4.22984527-9.24625163 11.2886966-13.07093477 27.55934295-23.1393923 11.74732588-7.26915544 23.2403858-14.9410967 34.86176684-22.41105096L408.87986143-73.14893168000003c3.5145737-2.61394934 31.32937079-22.75324068 54.4889618-13.39649029 2.55810585 1.03369814 7.74323079 3.19852345 11.88158784 8.31711149 6.50635748 8.04621128 5.08413144 17.21047998 4.75263512 33.26844592-0.41704373 20.19751114-0.00831713 40.40452759-0.1841646 60.60679136-0.01188158 1.3984629-0.01544607 8.31829965-0.02257503 22.15916131-0.03564477 68.52943412 0.24119623 172.43748419 0.22337385 202.40403683l-0.01188159 24.60558023c-0.00950528 17.90317652-0.01306975 17.72138823-0.00118814 18.76221534 0.13307378 11.8019812 0.32080287 25.47055982 0.33624894 28.67621226 0.07841847 16.23737792 0.11762772 24.35606688-3.90428977 32.50208348-5.86831623 11.88871679-17.01443377 18.43309535-26.65277781 24.09229564-1.31172729 0.7699269-9.34724516 3.74270017-24.33230372 13.73155106 0 0-2.58780984 1.42935503-35.06375385 19.84106353-109.85597291 62.28090707-164.78455345 93.42136062-190.81592423 111.93049815-16.32530168 11.60831131-34.8142405 19.83037009-51.99858098 30.12576593-4.77402198 2.85989817-11.30533083 6.80220902-20.8676327 8.53573269-4.99383138 0.90656515-24.7422185 4.48767572-38.79694875-8.64623145-8.75910656-8.18522585-10.95007133-18.79191931-11.59999417-23.64317163zM955.03130394 520.72372017A25998.79502672 25998.79502672 0 0 1 955.31289758 196.23636837000004c0.30892129-6.34239159 0.52041355-15.34031805 0-26.13949322-0.65823995-13.67214311-0.98854811-20.50762058-3.56447637-26.13949321-4.22984527-9.24625163-11.2886966-13.07093477-27.55934296-23.1393923-11.74732588-7.26915544-23.2403858-14.9410967-34.86176686-22.41105096L622.46209612-73.14893168000003c-3.5145737-2.61394934-31.32937079-22.75324068-54.48896179-13.39649029-2.55810585 1.03369814-7.74323079 3.19852345-11.88158784 8.31711149-6.50635748 8.04621128-5.08413144 17.21047998-4.75263512 33.26844592 0.41704373 20.19751114 0.00831713 40.40452759 0.1841646 60.60679136 0.01188158 1.3984629 0.01544607 8.31829965 0.02257502 22.15916131 0.03564477 68.52943412-0.24119623 172.43748419-0.22337384 202.40403683l0.01188159 24.60558023c0.00950528 17.90317652 0.01306975 17.72138823 0.00118814 18.76221534-0.13307378 11.8019812-0.32080287 25.47055982-0.33624891 28.67621226-0.07841847 16.23737792-0.11762772 24.35606688 3.90428973 32.50208348 5.86831623 11.88871679 17.01443377 18.43309535 26.65277784 24.09229564 1.31172729 0.7699269 9.34724516 3.74270017 24.3323037 13.73155106 0 0 2.58780984 1.42935503 35.06375386 19.84106353 109.85597291 62.28090707 164.78455345 93.42136062 190.81592421 111.93049815 16.32530168 11.60831131 34.8142405 19.83037009 51.99858099 30.12576593 4.77402198 2.85989817 11.30533083 6.80220902 20.86763269 8.53573269 4.99383138 0.90537699 24.7422185 4.48648757 38.79694876-8.64741962 8.75910656-8.18403771 10.95007133-18.79073115 11.59999419-23.64198346z"  horiz-adv-x="1024" />

    
    <glyph glyph-name="dianpujinhuotaizhang" unicode="&#58940;" d="M837.30517578 621.3046875H661.30419922v-52.65197754l134.22546387 1.48315429 59.32617187-265.23742675H661.30419922l-67.97790528-83.79821778H430.67370605l-67.97790527 83.79821778H169.14416503l52.89916994 263.75427247h140.65246581V621.3046875H186.69482422L116.4921875 290.80847167 191.88586425-11.5078125h640.22827149l75.39367676 302.31628418-70.20263672 330.49621582zM512 317.99963377999995L731.75402833 463.1015625H608.65222168V779.5078125H415.34777832v-316.40625H292.24597167L512 317.99963377999995z"  horiz-adv-x="1024" />

    
    <glyph glyph-name="jinhuo" unicode="&#58922;" d="M856.1 738.6h-89.5c-13.2-50.4-58.7-86.1-111-86.1H368.9c-53.3 0-98.3 36.7-111 86.1h-89.5c-31.8 0-57.2-25.4-57.2-57.2v-687.2c0-31.8 25.4-57.2 57.2-57.2h687.2c31.8 0 57.2 25.4 57.2 57.2V681.4c0.5 31.8-25.4 57.2-56.7 57.2zM481.9 521.5c0 11.3 9.3 20.1 20.1 20.1h20c11.3 0 20.1-9.3 20.1-20.1v-20.1h-60.2v20.1z m0-40.2h60.7v-20.1h-60.7v20.1z m235.3-202.5L540.1 106.7c-3.4-6.4-9.8-10.8-17.6-10.8h-20.1c-7.8 0-14.2 4.4-17.6 10.8l-177 172.1c-7.8 7.8-7.8 20.5 0 28.4l14.7 14.2c7.8 7.8 21 7.8 28.9 0l131.1-127.2V440.7h60.7v-247l131.1 127.2c7.8 7.8 21 7.8 28.9 0l14.7-14.2c7.1-7.3 7.1-20-0.7-27.9zM368.9 832.1h286.6c31.8 0 57.2-25.4 57.2-57.2 0-31.8-25.4-57.2-57.2-57.2H368.9c-31.8 0-57.2 25.4-57.2 57.2 0 31.7 25.9 57.2 57.2 57.2z m0 0"  horiz-adv-x="1024" />

    
    <glyph glyph-name="lie" unicode="&#58954;" d="M174.303436 773.219494h155.687798v-778.438988H174.303436zM783.675207 773.219494h65.262379v-778.438988H783.675207zM444.058088 773.219494h65.262379v-778.438988h-65.262379zM613.867256 773.219494h65.262379v-778.438988h-65.262379z"  horiz-adv-x="1024" />

    
    <glyph glyph-name="kehu" unicode="&#58907;" d="M593.92 265.671s-34.133 9.102-43.236 13.653c-18.204 11.378-29.582 34.134-29.582 56.89 0 25.03 20.48 45.51 34.134 61.44 34.133 40.96 52.337 95.573 52.337 157.013 0 127.43-91.022 229.83-202.524 229.83S202.524 679.823 202.524 552.392c0-61.44 20.48-116.053 52.338-157.013 20.48-11.378 34.134-36.41 34.134-61.44 0-22.756-11.378-43.236-29.583-56.89v-2.275c-2.275 0-4.55-2.275-4.55-2.275-11.379-6.827-22.756-11.378-36.41-11.378-86.47-29.582-159.289-75.093-202.524-131.982h2.275C6.827 113.208 2.276 95.004 2.276 76.8c0-54.613 45.51-100.124 102.4-100.124h600.746c59.165 0 104.676 43.235 104.676 100.124 0 22.756-9.102 43.236-20.48 61.44-43.236 56.889-111.502 100.124-195.698 127.431z m407.324-100.124c-38.684 47.786-97.848 88.746-172.942 111.502 0 0-29.582 6.827-38.684 11.378-15.93 11.377-25.031 29.582-25.031 50.062 0 22.755 18.204 40.96 29.582 52.338 29.582 36.409 47.787 84.195 47.787 138.809 0 111.502-79.645 204.8-179.77 204.8-15.928 0-31.857-2.276-45.51-6.827 34.133-50.062 52.337-109.227 52.337-175.218 0-70.542-25.03-138.809-68.266-195.698l-4.551-4.55v-2.276c-4.552-4.551-11.378-11.378-13.654-18.205 0-2.275 0-2.275 2.276-2.275 4.55-2.276 11.378-4.551 18.204-4.551h2.276l9.102-4.552c93.298-29.582 172.942-81.92 225.28-147.91 22.756-29.583 36.409-63.716 36.409-100.125 0-20.48-4.551-36.409-11.378-54.613h65.991c52.338 0 93.298 38.684 93.298 88.746-2.276 25.031-9.102 43.236-22.756 59.165z m0 0"  horiz-adv-x="1024" />

    
    <glyph glyph-name="wupinchuku" unicode="&#58891;" d="M705 384.4V498c22 19.3 57.5 19.3 79.3-0.2L928 370V582.7c0 25.5-15.2 48.6-38.6 58.7l-352 152.3c-16.2 7-34.6 7-50.8 0l-352-152.2c-23.4-10-38.6-33.1-38.6-58.6V33c0-35.3 28.7-64 64-64h704c35.3 0 64 28.7 64 64V271L784.3 143.1c-21.9-19.5-57.3-19.5-79.3-0.2V257h-65.2V384.4H705zM447.8 257h-64V384.4h64V257z m128 0h-64V384.4h64V257z"  horiz-adv-x="1024" />

    
    <glyph glyph-name="jiance" unicode="&#58883;" d="M682.879 562.646c69.905-46.604 116.509-124.276 124.276-217.483 23.301 0 46.604-7.767 69.905-15.534-7.767 124.276-69.905 233.017-170.879 295.154-7.767-15.534-7.767-38.836-23.301-62.138z m-46.603-512.637C597.44 34.475 558.603 18.94 512 18.94s-85.439 7.767-124.276 31.069c-15.534-23.301-31.069-38.836-46.604-54.371 54.371-31.069 108.741-46.604 170.879-46.604 62.138 0 124.276 15.534 170.879 46.604-15.534 15.534-31.069 31.069-46.604 54.371z m-419.43 295.155c7.767 93.206 54.371 170.879 124.276 217.483l-23.301 69.905C216.847 570.414 154.71 453.906 146.942 329.63c23.301 7.767 46.604 15.534 69.905 15.534z m7.766-38.837c-85.439 0-155.344-69.905-155.344-155.344s69.905-155.344 155.344-155.344 155.344 69.905 155.344 155.344-69.905 155.344-155.344 155.344zM512 811.198c-85.439 0-155.344-69.905-155.344-155.344S426.561 500.51 512 500.51s155.344 69.905 155.344 155.344S597.439 811.198 512 811.198z m287.388-504.871c-85.439 0-155.344-69.905-155.344-155.344s69.905-155.344 155.344-155.344 155.344 69.905 155.344 155.344-69.905 155.344-155.344 155.344z m-574.776 0c-85.439 0-155.344-69.905-155.344-155.344s69.905-155.344 155.344-155.344 155.344 69.905 155.344 155.344-69.905 155.344-155.344 155.344z"  horiz-adv-x="1024" />

    
    <glyph glyph-name="jichuxinxi1" unicode="&#58972;" d="M604.16 896h-180.906667C187.733333 896 0 708.266667 0 476.16v-180.906667C0 59.733333 187.733333-128 419.84-128H1024V476.16C1024 708.266667 836.266667 896 604.16 896z m-17.066667-802.133333H443.733333V476.16h143.36v-382.293333z m0 481.28H443.733333V721.92h143.36v-146.773333z"  horiz-adv-x="1024" />

    
    <glyph glyph-name="saoma" unicode="&#59324;" d="M128 419.84h768v-71.68H128zM199.68 512.512H128V768h255.488v-71.68H199.68zM199.68 255.488H128V0h255.488v71.68H199.68zM824.32 512.512h71.68V768h-255.488v-71.68H824.32zM824.32 255.488h71.68V0h-255.488v71.68H824.32z"  horiz-adv-x="1024" />

    
    <glyph glyph-name="erweima2" unicode="&#59069;" d="M426.666667 896H42.666667A42.666667 42.666667 0 0 1 0 853.333333V469.333333a42.666667 42.666667 0 0 1 42.666667-42.666666H426.666667a42.666667 42.666667 0 0 1 42.666666 42.666666V853.333333A42.666667 42.666667 0 0 1 426.666667 896z m-42.666667-384H85.333333V810.666667h298.666667v-298.666667z m42.666667-170.666667H42.666667A42.666667 42.666667 0 0 1 0 298.666667v-384A42.666667 42.666667 0 0 1 42.666667-128H426.666667a42.666667 42.666667 0 0 1 42.666666 42.666667V298.666667a42.666667 42.666667 0 0 1-42.666666 42.666666zM384-42.666667H85.333333V256h298.666667V-42.666667z m597.333333 938.666667H597.333333a42.666667 42.666667 0 0 1-42.666666-42.666667V469.333333a42.666667 42.666667 0 0 1 42.666666-42.666666h384A42.666667 42.666667 0 0 1 1024 469.333333V853.333333A42.666667 42.666667 0 0 1 981.333333 896zM938.666667 512H640V810.666667H938.666667v-298.666667zM170.666667 725.333333h128v-128H170.666667V725.333333z m0-554.666666h128V42.666667H170.666667v128z m725.333333 170.666666H1024V213.333333h-128v128z m0-341.333333h-85.333333V-128H1024v213.333333h-128v-85.333333z m-341.333333 0H682.666667V-128h-128v128z m170.666666 725.333333H853.333333v-128h-128V725.333333z m-170.666666-384H682.666667V213.333333h-128v128zM682.666667 213.333333h128v-213.333333H682.666667V213.333333z"  horiz-adv-x="1024" />

    
    <glyph glyph-name="chongtujiance" unicode="&#58881;" d="M64 739.2L512 896l448-156.8v-387.52c0-166.048-94.08-313.6-241.92-378.24L503.04-128l-201.6 96.864C153.6 38.08 64 181.024 64 342.496V739.2z m447.936 89.024L128 693.824v-351.328c0-137.376 75.936-257.312 201.152-315.936l174.144-83.68 189.152 89.248C816.576 86.336 896 210.624 896 351.68V693.76l-384.064 134.4z m-95.904-610.464a191.936 191.936 0 0 1 205.696 8.672l36.544-52.544A256 256 0 0 0 274.336 479.04l13.76 34.24 110.816-64-32-55.36-43.68 25.184a192.16 192.16 0 0 1 92.8-201.344z m191.936 332.48a191.936 191.936 0 0 1-206.624-9.28l-36.8 52.288a256 256 0 0 0 385.152-304.32l-13.76-34.24-115.392 66.624 32 55.424 48.224-27.84a192.16 192.16 0 0 1-92.8 201.344z"  horiz-adv-x="1024" />

    
    <glyph glyph-name="report-fill" unicode="&#58938;" d="M742.4 115.20000000000005V636.4159999999999c-0.512 11.776-2.56 31.232-14.848 43.52-8.704 8.704-21.504 12.8-38.4 12.8-34.816 0-52.224-26.112-52.224-77.824v-95.744c0-11.776-9.728-22.016-22.016-22.016h-404.48v-357.888c0-59.904 38.4-108.544 98.304-108.544h10.24l453.632 0.512C753.664 50.176000000000045 742.4 79.36000000000001 742.4 115.20000000000005z m-123.392 89.088H334.336c-14.336 0-26.112 11.776-26.112 26.112s11.776 26.112 26.112 26.112h284.672c14.336 0 26.112-11.776 26.112-26.112s-11.776-26.112-26.112-26.112z m0 139.264H334.336c-14.336 0-26.112 11.776-26.112 26.112s11.776 26.112 26.112 26.112h284.672c14.336 0 26.112-11.776 26.112-26.112s-11.776-26.112-26.112-26.112zM786.432 115.20000000000005c0-19.456 5.12-65.536 51.2-65.536 18.944 0 30.72 7.68 38.4 17.408 5.12 8.192 9.216 17.408 11.264 27.136v1.024c0 1.024 0.512 2.56 0.512 3.584 0.512 5.12 1.024 9.728 1.024 12.8V241.15200000000004c0 8.192-6.144 14.848-14.848 14.848h-87.552v-140.8zM150.016 540.672h443.392V614.4c0 71.68 31.744 116.224 86.016 120.832-5.12 1.024-10.752 1.536-15.872 1.536H214.528c-43.52 0-79.36-32.768-79.36-73.216v-111.616c0-5.12 6.144-11.264 14.848-11.264z"  horiz-adv-x="1024" />

    
    <glyph glyph-name="fangdajing" unicode="&#58934;" d="M752.512772 128.410772l139.929051-214.134524-59.77293-42.276248-141.350102 216.221692a382.573399 382.573399 0 0 0-179.984908-44.851901C292.003643 43.369791 114.239126 228.63923 114.239126 457.161889 114.239126 685.640141 292.003643 870.90958 511.333883 870.90958c219.374648 0 397.139165-185.269439 397.139164-413.747691 0-134.022811-61.149573-253.124593-155.960275-328.751117z m-241.134482-9.769721c179.318791 0 324.754413 151.519493 324.754413 338.520838 0 186.956937-145.435622 338.520838-324.79882 338.520838S186.535062 644.118826 186.535062 457.161889c0-187.001344 145.435622-338.565246 324.798821-338.565246z m205.652631 304.548853h-166.662562v-173.41255H476.91782v173.41255H307.413158v76.381456H476.91782v176.299059h73.450539v-176.299059h166.662562v-76.381456z"  horiz-adv-x="1024" />

    
    <glyph glyph-name="bukejian" unicode="&#58995;" d="M512.07447 380.15999999999997c-269.568 0-485.12 135.68-494.336 141.568-17.92 11.52-23.04 35.072-11.776 52.992 11.52 17.92 35.072 23.04 52.992 11.776 2.048-1.28 206.336-129.536 452.864-129.536 247.552 0 450.816 128.256 452.864 129.536 17.92 11.52 41.728 6.144 52.992-11.776 11.52-17.92 6.144-41.728-11.776-52.992-8.704-5.632-224.256-141.568-493.824-141.568zM149.32247 243.712c-11.776 0-23.296 5.376-30.72 15.36-12.8 16.896-9.216 40.96 7.68 53.76 68.352 51.2 69.888 139.264 69.888 140.032 0.256 20.992 17.408 38.144 38.4 38.144h0.256c21.248 0 38.144-17.152 38.144-38.4 0-5.12-1.024-126.72-100.608-201.472-6.912-4.864-14.848-7.424-23.04-7.424zM917.32247 243.712c-7.936 0-16.128 2.56-23.04 7.68-99.584 74.752-100.608 196.352-100.608 201.472 0 21.248 17.152 38.4 38.4 38.4s38.4-17.152 38.4-38.144c0-1.28 1.792-89.088 69.888-140.032 16.896-12.8 20.48-36.864 7.68-53.76-7.424-10.24-18.944-15.616-30.72-15.616zM870.47447 452.864zM512.07447 175.36c-21.248 0-38.4 17.152-38.4 38.4v186.112c0 21.248 17.152 38.4 38.4 38.4s38.4-17.152 38.4-38.4v-186.112c0-20.992-17.152-38.4-38.4-38.4z"  horiz-adv-x="1024" />

    
    <glyph glyph-name="xiala" unicode="&#58887;" d="M543.744 248.32c-7.168-7.168-16.896-13.824-26.112-11.776-9.216-1.536-17.92 5.632-25.088 11.776L270.848 471.04c-11.264 11.264-11.264 29.696 0 40.96s29.696 11.264 40.96 0l206.336-211.968L724.992 512c11.264 11.264 29.696 11.264 40.96 0s11.264-29.696 0-40.96L543.744 248.32z"  horiz-adv-x="1024" />

    
    <glyph glyph-name="gongyingshang" unicode="&#59174;" d="M761.392 170.993L537.499 303.877c0.604 0.33 1.264 0.66 1.924 0.99 46.933 22.971 94.416 46.987 140.359 70.178l8.794 4.397c6.923 3.518 23.026 12.31 31.984 17.257 3.958 2.253 8.517 3.407 13.025 3.407 4.285 0 8.517-1.044 12.365-2.968l26.214-13.354c6.813-3.518 13.793-7.035 20.719-10.551a12576.143 12576.143 0 0 1 61.276-31.27c12.365-6.376 24.894-12.585 36.492-18.411l7.583-3.792c9.451-4.782 19.345-9.727 29.016-14.619 0.937-0.494 2.034-0.989 3.518-1.594 5.826-2.473 14.619-6.154 15.279-17.421 0.657-11.87-8.464-16.212-13.959-18.85l-0.716-0.275c-0.934-0.44-1.868-0.934-2.638-1.319-49.462-28.083-107.77-61.166-167.342-94.689zM959.565 75.425c0.054-10.332-4.178-17.367-13.685-22.698-70.839-39.788-141.239-79.577-200.81-113.319-4.285-2.309-7.967-3.408-11.541-3.408-3.682 0-7.2 1.099-10.825 3.298-57.98 35.171-120.464 72.927-184.707 111.286-11.981 7.198-16.817 15.662-16.653 29.291 0.604 64.794 0.604 130.466 0 195.26l229.883-136.402c0.22-38.359 0.22-77.157 0.164-113.814v-41.766c18.191 10.221 36.712 20.719 52.539 29.621l20.389 11.54c31.272 17.642 63.696 35.888 95.46 53.639 3.738 2.033 4.836 3.517 4.782 9.012-0.166 23.576-0.166 47.647-0.166 70.838 0 16.652 0 33.744-0.054 50.615-0.054 6.211 0.55 13.19 5.329 17.971 2.914 3.023 6.982 4.507 12.091 4.507h0.44c8.904-0.165 12.915-5.331 14.453-8.408 1.814-3.517 2.694-7.748 2.694-13.793v-16.433c-0.059-38.251-0.169-77.819 0.217-116.837zM655.875 626.134a307.522 307.522 0 0 0-84.303-214.274c-8.464-7.913-38.853-35.777-75.07-67.761-20.499-18.08-43.47-39.238-43.196-66.936 0.605-64.629-1.044-129.037-1.648-193.501-0.11-8.849-0.286-17.032 0.494-24.455 2.803-26.687 45.82-50.395 45.82-50.395-13.953 0.082-73.539 0.237-87.086 0.479-196.313 3.504-346.45 25.124-346.45 102.289 0 69.245 121.674 161.847 288.795 194.105 11.595 3.078 22.038 9.453 30.116 18.246 23.301 25.555 21.542 65.178-4.012 88.534h0.385a307.708 307.708 0 0 0-83.808 213.67C295.911 754.127 376.256 832 475.838 832c99.58 0 180.037-77.983 180.037-205.866z"  horiz-adv-x="1024" />

    
    <glyph glyph-name="dui_copy" unicode="&#58898;" d="M453.632 187.61142900000004l676.571429 676.571428a105.179429 105.179429 0 1 0 148.772571-148.772571L535.113143-28.525713999999994a112.054857 112.054857 0 0 0-3.657143-3.437715 105.179429 105.179429 0 0 0-152.137143-3.657142L32.036571 311.588571a105.179429 105.179429 0 0 0 148.772572 148.772572l272.822857-272.822857z"  horiz-adv-x="1316" />

    
    <glyph glyph-name="jiancexiangmu-" unicode="&#59130;" d="M921 29L775 175c122.1 148.9 113.6 369.5-26 509-148 148.1-388.4 148.1-537 0-148.1-148.6-148.1-389 0-537 139.5-139.6 360.1-148.1 509-26l146-146c3.2-2.8 8.3-2.8 11 0l43 43c2.8 2.7 2.8 7.8 0 11zM696 200c-118.8-118.7-311.2-118.7-430 0-118.7 118.8-118.7 311.2 0 430 118.8 118.7 311.2 118.7 430 0 118.7-118.8 118.7-311.2 0-430zM296.8 564h72v-316h-72zM449.8 384h72v-136h-72zM602.8 473h72v-225h-72z"  horiz-adv-x="1024" />

    


  </font>
</defs>
</svg>
